<svg xmlns="http://www.w3.org/2000/svg" xmlns:xlink="http://www.w3.org/1999/xlink" width="40" zoomAndPan="magnify" viewBox="0 0 30 30.000001" height="40" preserveAspectRatio="xMidYMid meet" version="1.0"><defs><clipPath id="caf92166ec"><path d="M 12 0.691406 L 18 0.691406 L 18 9 L 12 9 Z M 12 0.691406 " clip-rule="nonzero"/></clipPath><clipPath id="94c5c86208"><path d="M 12 20 L 18 20 L 18 28.269531 L 12 28.269531 Z M 12 20 " clip-rule="nonzero"/></clipPath><clipPath id="24dd64a475"><path d="M 1.171875 10 L 7 10 L 7 19 L 1.171875 19 Z M 1.171875 10 " clip-rule="nonzero"/></clipPath><clipPath id="657bcbf646"><path d="M 23 10 L 28.753906 10 L 28.753906 19 L 23 19 Z M 23 10 " clip-rule="nonzero"/></clipPath></defs><path fill="#ffffff" d="M 11.429688 4.503906 C 11.429688 4.503906 11.429688 4.480469 11.429688 4.480469 C 11.367188 4.203125 11.320312 3.921875 11.320312 3.640625 C 8.261719 4.632812 5.785156 6.894531 4.46875 9.78125 C 4.773438 9.824219 5.050781 9.890625 5.308594 9.996094 C 6.515625 7.433594 8.714844 5.429688 11.429688 4.503906 Z M 11.429688 4.503906 " fill-opacity="1" fill-rule="nonzero"/><path fill="#ffffff" d="M 24.445312 10.0625 C 24.703125 9.933594 24.984375 9.847656 25.261719 9.804688 C 23.992188 6.960938 21.578125 4.742188 18.625 3.707031 C 18.625 3.921875 18.582031 4.160156 18.539062 4.375 C 18.539062 4.4375 18.519531 4.503906 18.496094 4.566406 C 21.125 5.539062 23.28125 7.542969 24.445312 10.0625 Z M 24.445312 10.0625 " fill-opacity="1" fill-rule="nonzero"/><path fill="#ffffff" d="M 11.96875 25.535156 L 11.882812 25.382812 C 11.710938 25.101562 11.558594 24.800781 11.472656 24.476562 C 8.605469 23.507812 6.28125 21.332031 5.117188 18.550781 L 5.074219 18.617188 C 4.921875 18.855469 4.707031 19.027344 4.449219 19.132812 C 5.828125 22.257812 8.605469 24.648438 11.96875 25.535156 Z M 11.96875 25.535156 " fill-opacity="1" fill-rule="nonzero"/><path fill="#ffffff" d="M 25.328125 19.046875 C 25.15625 18.941406 24.984375 18.789062 24.875 18.617188 L 24.703125 18.335938 C 23.605469 21.136719 21.339844 23.355469 18.496094 24.390625 C 18.390625 24.738281 18.261719 25.058594 18.066406 25.382812 L 18.023438 25.449219 C 21.277344 24.519531 23.96875 22.128906 25.328125 19.046875 Z M 25.328125 19.046875 " fill-opacity="1" fill-rule="nonzero"/><path fill="#ffffff" d="M 15.394531 3.578125 C 15.394531 3.695312 15.351562 3.796875 15.269531 3.882812 C 15.183594 3.964844 15.082031 4.007812 14.964844 4.007812 C 14.84375 4.007812 14.742188 3.964844 14.660156 3.882812 C 14.574219 3.796875 14.53125 3.695312 14.53125 3.578125 C 14.53125 3.457031 14.574219 3.355469 14.660156 3.273438 C 14.742188 3.1875 14.84375 3.144531 14.964844 3.144531 C 15.082031 3.144531 15.183594 3.1875 15.269531 3.273438 C 15.351562 3.355469 15.394531 3.457031 15.394531 3.578125 Z M 15.394531 3.578125 " fill-opacity="1" fill-rule="nonzero"/><g clip-path="url(#caf92166ec)"><path fill="#ffffff" d="M 12.613281 5.105469 L 14.597656 8.253906 C 14.683594 8.382812 14.8125 8.445312 14.964844 8.445312 C 15.113281 8.445312 15.242188 8.359375 15.328125 8.253906 C 15.328125 8.253906 17.3125 5.105469 17.3125 5.105469 C 17.59375 4.652344 17.765625 4.09375 17.765625 3.554688 C 17.765625 1.980469 16.515625 0.691406 14.964844 0.691406 C 13.414062 0.691406 12.164062 1.980469 12.164062 3.554688 C 12.164062 3.792969 12.183594 4.03125 12.25 4.265625 C 12.335938 4.566406 12.441406 4.847656 12.613281 5.105469 Z M 14.964844 2.285156 C 15.675781 2.285156 16.257812 2.867188 16.257812 3.578125 C 16.257812 4.289062 15.675781 4.871094 14.964844 4.871094 C 14.253906 4.871094 13.671875 4.289062 13.671875 3.578125 C 13.671875 2.84375 14.253906 2.285156 14.964844 2.285156 Z M 14.964844 2.285156 " fill-opacity="1" fill-rule="nonzero"/></g><g clip-path="url(#94c5c86208)"><path fill="#ffffff" d="M 14.964844 28.269531 C 15.113281 28.269531 15.242188 28.183594 15.328125 28.078125 C 15.328125 28.078125 17.3125 24.929688 17.3125 24.929688 C 17.59375 24.476562 17.765625 23.917969 17.765625 23.378906 C 17.765625 21.804688 16.515625 20.511719 14.964844 20.511719 C 13.414062 20.511719 12.164062 21.804688 12.164062 23.378906 C 12.164062 23.917969 12.3125 24.476562 12.613281 24.929688 L 14.597656 28.078125 C 14.683594 28.183594 14.8125 28.269531 14.964844 28.269531 Z M 13.671875 23.402344 C 13.671875 22.6875 14.253906 22.109375 14.964844 22.109375 C 15.675781 22.109375 16.257812 22.6875 16.257812 23.402344 C 16.257812 24.113281 15.675781 24.691406 14.964844 24.691406 C 14.253906 24.691406 13.671875 24.113281 13.671875 23.402344 Z M 13.671875 23.402344 " fill-opacity="1" fill-rule="nonzero"/></g><path fill="#ffffff" d="M 15.394531 23.402344 C 15.394531 23.519531 15.351562 23.621094 15.269531 23.707031 C 15.183594 23.789062 15.082031 23.832031 14.964844 23.832031 C 14.84375 23.832031 14.742188 23.789062 14.660156 23.707031 C 14.574219 23.621094 14.53125 23.519531 14.53125 23.402344 C 14.53125 23.28125 14.574219 23.179688 14.660156 23.097656 C 14.742188 23.011719 14.84375 22.96875 14.964844 22.96875 C 15.082031 22.96875 15.183594 23.011719 15.269531 23.097656 C 15.351562 23.179688 15.394531 23.28125 15.394531 23.402344 Z M 15.394531 23.402344 " fill-opacity="1" fill-rule="nonzero"/><g clip-path="url(#24dd64a475)"><path fill="#ffffff" d="M 3.609375 18.164062 C 3.695312 18.292969 3.824219 18.359375 3.972656 18.359375 C 4.125 18.359375 4.253906 18.273438 4.339844 18.164062 C 4.339844 18.164062 6.324219 15.019531 6.324219 15.019531 C 6.472656 14.78125 6.582031 14.5 6.667969 14.242188 C 6.734375 13.984375 6.777344 13.726562 6.777344 13.488281 C 6.777344 11.894531 5.527344 10.601562 3.972656 10.601562 C 2.421875 10.601562 1.171875 11.894531 1.171875 13.46875 C 1.171875 14.003906 1.324219 14.542969 1.625 15.019531 Z M 3.972656 12.195312 C 4.6875 12.195312 5.265625 12.777344 5.265625 13.488281 C 5.265625 14.199219 4.6875 14.78125 3.972656 14.78125 C 3.261719 14.78125 2.683594 14.199219 2.683594 13.488281 C 2.683594 12.757812 3.261719 12.195312 3.972656 12.195312 Z M 3.972656 12.195312 " fill-opacity="1" fill-rule="nonzero"/></g><path fill="#ffffff" d="M 4.40625 13.488281 C 4.40625 13.609375 4.363281 13.710938 4.277344 13.792969 C 4.195312 13.878906 4.09375 13.917969 3.972656 13.917969 C 3.855469 13.917969 3.753906 13.878906 3.667969 13.792969 C 3.585938 13.710938 3.542969 13.609375 3.542969 13.488281 C 3.542969 13.371094 3.585938 13.269531 3.667969 13.183594 C 3.753906 13.101562 3.855469 13.058594 3.972656 13.058594 C 4.09375 13.058594 4.195312 13.101562 4.277344 13.183594 C 4.363281 13.269531 4.40625 13.371094 4.40625 13.488281 Z M 4.40625 13.488281 " fill-opacity="1" fill-rule="nonzero"/><path fill="#ffffff" d="M 26.382812 13.488281 C 26.382812 13.609375 26.339844 13.710938 26.257812 13.792969 C 26.171875 13.878906 26.070312 13.917969 25.953125 13.917969 C 25.832031 13.917969 25.730469 13.878906 25.648438 13.792969 C 25.5625 13.710938 25.523438 13.609375 25.523438 13.488281 C 25.523438 13.371094 25.5625 13.269531 25.648438 13.183594 C 25.730469 13.101562 25.832031 13.058594 25.953125 13.058594 C 26.070312 13.058594 26.171875 13.101562 26.257812 13.183594 C 26.339844 13.269531 26.382812 13.371094 26.382812 13.488281 Z M 26.382812 13.488281 " fill-opacity="1" fill-rule="nonzero"/><g clip-path="url(#657bcbf646)"><path fill="#ffffff" d="M 23.152344 13.46875 C 23.152344 14.027344 23.324219 14.542969 23.605469 15.019531 L 25.585938 18.164062 C 25.671875 18.292969 25.800781 18.359375 25.953125 18.359375 C 26.105469 18.359375 26.234375 18.273438 26.320312 18.164062 C 26.320312 18.164062 28.300781 15.019531 28.300781 15.019531 C 28.582031 14.566406 28.753906 14.003906 28.753906 13.46875 C 28.753906 11.894531 27.503906 10.601562 25.953125 10.601562 C 24.402344 10.601562 23.152344 11.894531 23.152344 13.46875 Z M 25.953125 12.195312 C 26.664062 12.195312 27.246094 12.777344 27.246094 13.488281 C 27.246094 14.199219 26.664062 14.78125 25.953125 14.78125 C 25.242188 14.78125 24.660156 14.199219 24.660156 13.488281 C 24.660156 12.757812 25.242188 12.195312 25.953125 12.195312 Z M 25.953125 12.195312 " fill-opacity="1" fill-rule="nonzero"/></g><path fill="#ffffff" d="M 15.566406 9.632812 C 15.375 9.4375 15.113281 9.308594 14.855469 9.308594 C 14.574219 9.308594 14.339844 9.417969 14.125 9.632812 L 9.363281 15.277344 C 9.210938 15.449219 9.230469 15.730469 9.40625 15.878906 C 9.578125 16.03125 9.855469 16.007812 10.007812 15.835938 L 10.546875 15.210938 L 10.546875 18.746094 C 10.546875 19.261719 10.957031 19.671875 11.453125 19.671875 L 18.261719 19.671875 C 18.757812 19.671875 19.164062 19.261719 19.164062 18.746094 L 19.164062 15.210938 C 19.164062 15.210938 19.703125 15.835938 19.703125 15.835938 C 19.855469 16.007812 20.136719 16.03125 20.308594 15.878906 C 20.480469 15.730469 20.5 15.449219 20.351562 15.277344 Z M 14.855469 13.1875 C 15.09375 13.1875 15.285156 13.382812 15.285156 13.617188 C 15.285156 13.855469 15.09375 14.050781 14.855469 14.050781 C 14.617188 14.050781 14.425781 13.855469 14.425781 13.617188 C 14.425781 13.382812 14.617188 13.1875 14.855469 13.1875 Z M 15.503906 18.789062 L 14.210938 18.789062 L 14.210938 16.632812 L 15.503906 16.632812 Z M 15.503906 18.789062 " fill-opacity="1" fill-rule="nonzero"/></svg>